<svg height="512" viewBox="0 0 512 512" width="512" xmlns="http://www.w3.org/2000/svg"><g><g><g><path d="m24 328h304v64h-304z" fill="#acabb1"/><path d="m24 104h304v224h-304z" fill="#3e3d42"/><path d="m440 392h48v-112l-50.29-88-13.71-24h-96v224h32" fill="#acabb1"/><path d="m368 192v88h120l-50.29-88z" fill="#83d8f4"/><path d="m448 304h24a16 16 0 0 1 16 16 16 16 0 0 1 -16 16h-24a0 0 0 0 1 0 0v-32a0 0 0 0 1 0 0z" fill="#ff9811" transform="matrix(-1 0 0 -1 936 640)"/><circle cx="400" cy="392" fill="#2d2d30" r="40"/><circle cx="112" cy="392" fill="#2d2d30" r="40"/><g fill="#d8d7da"><circle cx="400" cy="392" r="16"/><circle cx="112" cy="392" r="16"/></g></g><circle cx="176" cy="168" fill="#91cc04" r="96"/></g><g><path d="m400 368a24 24 0 1 0 24 24 24.027 24.027 0 0 0 -24-24zm0 32a8 8 0 1 1 8-8 8.009 8.009 0 0 1 -8 8z"/><path d="m112 416a24 24 0 1 0 -24-24 24.027 24.027 0 0 0 24 24zm0-32a8 8 0 1 1 -8 8 8.009 8.009 0 0 1 8-8z"/><path d="m494.95 276.03-64-112a8.019 8.019 0 0 0 -6.95-4.03h-88v-56a8 8 0 0 0 -8-8h-77.04a103.809 103.809 0 0 0 -149.93 0h-77.03a8 8 0 0 0 -8 8v288a8 8 0 0 0 8 8h40.68a48.066 48.066 0 0 0 20.83 32h-69.51a8 8 0 0 0 0 16h447a8 8 0 0 0 0-16h-36.51a48.066 48.066 0 0 0 20.83-32h40.68a8 8 0 0 0 8-8v-112a8.017 8.017 0 0 0 -1.05-3.97zm-61.88-76.03 41.14 72h-98.21v-72zm-323.91-89.18a8.025 8.025 0 0 0 3.06-3.39 87.967 87.967 0 1 1 -3.06 3.39zm-77.16 1.18h56.4a104 104 0 1 0 175.2 0h56.4v208h-288zm32.68 272h-32.68v-48h288v48h-160.68a47.99 47.99 0 0 0 -94.64 0zm47.32 40a32 32 0 1 1 32-32 32.036 32.036 0 0 1 -32 32zm26.49 8a48.066 48.066 0 0 0 20.83-32h193.36a48.066 48.066 0 0 0 20.83 32zm261.51-8a32 32 0 1 1 32-32 32.036 32.036 0 0 1 -32 32zm80-96h-16a8 8 0 0 1 0-16h16zm0-32h-16a24 24 0 0 0 0 48h16v40h-32.68a47.99 47.99 0 0 0 -94.64 0h-16.68v-208h83.36l4.57 8h-55.93a8 8 0 0 0 -8 8v88a8 8 0 0 0 8 8h112z"/><path d="m495 432h-8a8 8 0 0 0 0 16h8a8 8 0 0 0 0-16z"/><path d="m123.2 198.4 32 24a8 8 0 0 0 10.821-1.132l56-64a8 8 0 0 0 -12.042-10.536l-51.114 58.416-26.065-19.548a8 8 0 0 0 -9.6 12.8z"/></g></g></svg>